<svg xmlns="http://www.w3.org/2000/svg" xmlns:xlink="http://www.w3.org/1999/xlink" width="500" zoomAndPan="magnify" viewBox="0 0 375 374.999991" height="500" preserveAspectRatio="xMidYMid meet" version="1.0"><defs><clipPath id="34ba68a892"><path d="M 13.59375 0 L 361.59375 0 L 361.59375 375 L 13.59375 375 Z M 13.59375 0 " clip-rule="nonzero"/></clipPath></defs><g clip-path="url(#34ba68a892)"><path fill="#d84c9c" d="M 13.628906 356.714844 L 25.753906 0 L 305.976562 22.382812 L 353.398438 113.234375 C 353.398438 113.234375 318.585938 209.808594 361.519531 273.828125 L 361.519531 374.902344 L 90.796875 374.902344 Z M 13.628906 356.714844 " fill-opacity="1" fill-rule="nonzero"/></g><path fill="#2f3770" d="M 299.011719 316.757812 L 267.777344 247.382812 C 261.996094 234.199219 250.992188 225.078125 234.804688 219.972656 C 228.324219 217.886719 220.800781 216.628906 212.234375 216.167969 L 212.234375 214.425781 C 226.582031 214.195312 240.101562 211.644531 252.828125 206.792969 C 264.859375 202.402344 274.683594 195.753906 282.324219 186.84375 C 289.960938 177.949219 293.773438 166.3125 293.773438 151.992188 C 293.773438 130.726562 285.089844 114.125 267.738281 102.214844 C 250.390625 90.308594 222.039062 84.355469 182.71875 84.355469 L 90.796875 84.355469 L 90.796875 89.554688 L 111.625 94.753906 L 111.625 316.738281 L 90.796875 321.9375 L 90.796875 327.140625 L 193.164062 327.140625 L 193.164062 321.9375 L 168.871094 316.738281 L 168.871094 219.625 L 191.421875 219.625 L 226.121094 297.660156 C 234.917969 317.320312 248.785156 327.140625 267.757812 327.140625 L 316.34375 327.140625 L 316.34375 321.9375 L 298.992188 316.738281 Z M 182.757812 210.964844 L 168.871094 210.964844 L 168.871094 93.035156 L 182.757812 93.035156 C 198.945312 93.035156 211.671875 98.117188 220.9375 108.304688 C 230.199219 118.492188 234.824219 133.046875 234.824219 152.011719 C 234.824219 170.972656 230.199219 185.546875 220.9375 195.714844 C 211.671875 205.902344 198.964844 210.984375 182.757812 210.984375 Z M 182.757812 210.964844 " fill-opacity="1" fill-rule="nonzero"/><path fill="#91d1e5" d="M 286.964844 301.003906 L 255.730469 231.628906 C 249.945312 218.445312 238.941406 209.324219 222.753906 204.21875 C 216.277344 202.132812 208.753906 200.875 200.183594 200.414062 L 200.183594 198.671875 C 214.535156 198.441406 228.054688 195.890625 240.78125 191.039062 C 252.808594 186.648438 262.632812 180 270.273438 171.089844 C 277.914062 162.195312 281.722656 150.5625 281.722656 136.238281 C 281.722656 114.972656 273.039062 98.371094 255.691406 86.460938 C 238.34375 74.554688 209.988281 68.601562 170.671875 68.601562 L 78.726562 68.601562 L 78.726562 73.800781 L 99.554688 79 L 99.554688 300.984375 L 78.726562 306.183594 L 78.726562 311.386719 L 181.09375 311.386719 L 181.09375 306.183594 L 156.804688 300.984375 L 156.804688 203.871094 L 179.355469 203.871094 L 214.050781 281.90625 C 222.851562 301.566406 236.71875 311.386719 255.691406 311.386719 L 304.273438 311.386719 L 304.273438 306.183594 L 286.925781 300.984375 Z M 170.710938 195.210938 L 156.824219 195.210938 L 156.824219 77.300781 L 170.710938 77.300781 C 186.898438 77.300781 199.625 82.382812 208.886719 92.570312 C 218.152344 102.757812 222.773438 117.3125 222.773438 136.277344 C 222.773438 155.238281 218.152344 169.8125 208.886719 179.980469 C 199.625 190.167969 186.917969 195.25 170.710938 195.25 Z M 170.710938 195.210938 " fill-opacity="1" fill-rule="nonzero"/><path fill="#2f3770" d="M 170.710938 68.621094 C 210.046875 68.621094 238.382812 74.574219 255.730469 86.480469 C 273.078125 98.390625 281.761719 114.992188 281.761719 136.257812 C 281.761719 150.597656 277.953125 162.214844 270.3125 171.109375 C 262.671875 180.019531 252.847656 186.667969 240.816406 191.058594 C 228.09375 195.910156 214.554688 198.460938 200.222656 198.691406 L 200.222656 200.433594 C 208.769531 200.894531 216.3125 202.171875 222.792969 204.238281 C 238.980469 209.324219 249.964844 218.464844 255.769531 231.648438 L 287.003906 301.023438 L 304.351562 306.222656 L 304.351562 311.425781 L 255.769531 311.425781 C 236.796875 311.425781 222.910156 301.605469 214.128906 281.945312 L 179.433594 203.910156 L 156.882812 203.910156 L 156.882812 301.023438 L 181.171875 306.222656 L 181.171875 311.425781 L 78.726562 311.425781 L 78.726562 306.222656 L 99.554688 301.023438 L 99.554688 79.019531 L 78.726562 73.820312 L 78.726562 68.621094 L 170.691406 68.621094 M 156.804688 195.230469 L 170.691406 195.230469 C 186.878906 195.230469 199.605469 190.148438 208.867188 179.960938 C 218.132812 169.792969 222.753906 155.21875 222.753906 136.257812 C 222.753906 117.292969 218.132812 102.738281 208.867188 92.550781 C 199.605469 82.363281 186.898438 77.28125 170.691406 77.28125 L 156.804688 77.28125 L 156.804688 195.210938 M 170.691406 60.871094 L 70.992188 60.871094 L 70.992188 79.832031 L 76.851562 81.300781 L 91.820312 85.03125 L 91.820312 294.933594 L 76.851562 298.667969 L 70.992188 300.136719 L 70.992188 319.097656 L 188.832031 319.097656 L 188.832031 299.902344 L 182.71875 298.589844 L 164.539062 294.703125 L 164.539062 211.566406 L 174.328125 211.566406 L 206.992188 285.019531 C 216.972656 307.308594 233.816406 319.097656 255.710938 319.097656 L 312.03125 319.097656 L 312.03125 300.40625 L 306.515625 298.742188 L 292.554688 294.550781 L 262.769531 228.402344 C 257.46875 216.320312 248.339844 207.101562 235.597656 200.933594 C 238.265625 200.121094 240.894531 199.214844 243.507812 198.226562 C 256.714844 193.394531 267.703125 185.953125 276.171875 176.074219 C 285.011719 165.773438 289.476562 152.359375 289.476562 136.179688 C 289.476562 112.308594 279.59375 93.421875 260.101562 80.027344 C 241.242188 67.09375 212 60.8125 170.691406 60.8125 Z M 164.539062 85.011719 L 170.691406 85.011719 C 184.730469 85.011719 195.347656 89.167969 203.144531 97.75 C 211.015625 106.410156 215.019531 119.363281 215.019531 136.257812 C 215.019531 153.152344 211.015625 166.101562 203.144531 174.761719 C 195.347656 183.324219 184.730469 187.5 170.691406 187.5 L 164.539062 187.5 Z M 164.539062 85.011719 " fill-opacity="1" fill-rule="nonzero"/></svg>